<?xml version="1.0" standalone="no"?>
<!DOCTYPE svg PUBLIC "-//W3C//DTD SVG 20010904//EN"
 "http://www.w3.org/TR/2001/REC-SVG-20010904/DTD/svg10.dtd">
<svg version="1.0" xmlns="http://www.w3.org/2000/svg"
 width="1440.000000pt" height="1440.000000pt" viewBox="0 0 1440.000000 1440.000000"
 preserveAspectRatio="xMidYMid meet">

<g transform="translate(0.000000,1440.000000) scale(0.100000,-0.100000)"
fill="#000000" stroke="none">
<path d="M0 7200 l0 -7200 7200 0 7200 0 0 7200 0 7200 -7200 0 -7200 0 0
-7200z m7785 5925 c307 -31 510 -60 660 -95 22 -5 92 -21 155 -35 310 -71 640
-177 878 -282 29 -13 55 -23 57 -23 11 0 220 -97 350 -162 568 -286 1050 -632
1491 -1072 819 -819 1367 -1830 1603 -2956 36 -171 51 -266 86 -535 65 -511
49 -1313 -35 -1785 -60 -340 -119 -579 -215 -880 -162 -504 -434 -1046 -759
-1515 -217 -312 -408 -539 -710 -840 -237 -237 -247 -246 -402 -377 -339 -286
-806 -590 -1184 -771 -530 -254 -924 -380 -1530 -491 -366 -67 -1014 -104
-1338 -76 -297 25 -345 30 -467 45 -434 53 -959 189 -1390 362 -196 78 -241
98 -425 190 -574 285 -1085 657 -1571 1142 -324 324 -535 583 -779 951 -5 8
-21 32 -35 53 -67 101 -220 370 -297 522 -295 583 -486 1187 -579 1830 -37
256 -51 464 -56 820 -4 301 -2 385 16 595 12 135 24 252 26 260 2 8 9 56 15
105 6 50 15 110 20 135 5 25 19 95 31 155 23 123 52 253 74 335 78 288 142
483 232 715 108 276 193 455 376 785 97 175 332 524 448 665 9 11 47 58 85
105 678 849 1671 1532 2699 1858 367 117 582 167 1010 236 50 8 176 22 280 31
105 9 197 17 205 19 8 2 175 4 370 5 309 0 387 -3 605 -24z"/>
<path d="M6950 12844 c-90 -4 -384 -30 -510 -45 -218 -26 -441 -69 -660 -126
-52 -14 -117 -31 -145 -38 -114 -30 -327 -100 -456 -151 -655 -255 -1232 -607
-1739 -1059 -79 -70 -405 -398 -457 -460 -28 -33 -74 -87 -103 -120 -109 -125
-293 -378 -426 -585 -266 -413 -496 -921 -641 -1415 -112 -382 -176 -731 -213
-1160 -13 -149 -13 -811 0 -960 33 -380 100 -760 186 -1050 8 -27 24 -81 35
-120 12 -38 25 -79 29 -90 5 -11 18 -51 31 -90 91 -289 306 -753 501 -1078
348 -582 825 -1127 1368 -1561 386 -309 849 -587 1275 -765 55 -23 114 -48
130 -56 54 -24 218 -82 330 -118 155 -50 277 -84 440 -123 217 -52 521 -102
770 -126 185 -17 859 -18 1050 0 363 33 797 117 1088 208 636 201 1162 472
1702 878 417 314 835 734 1150 1156 551 739 908 1570 1055 2455 11 66 25 161
30 210 6 50 15 124 20 165 6 41 15 188 21 325 28 654 -42 1269 -211 1855 -12
41 -26 91 -31 110 -6 19 -33 102 -60 183 -181 537 -450 1048 -790 1502 -89
119 -126 166 -289 358 -54 64 -422 434 -510 513 -53 48 -339 275 -402 321
-140 99 -353 238 -443 288 -27 15 -89 49 -137 76 -411 228 -863 410 -1308 524
-102 27 -140 35 -295 66 -313 62 -664 97 -1020 102 -154 3 -318 3 -365 1z
m395 -756 c54 -95 158 -276 232 -401 73 -126 133 -232 133 -238 0 -5 4 -9 9
-9 8 0 13 36 36 315 16 191 44 468 48 472 4 4 227 -25 255 -33 18 -5 22 -12
18 -33 -3 -14 -8 -71 -11 -126 -3 -55 -10 -140 -16 -190 -11 -100 -34 -375
-49 -590 -11 -153 -28 -316 -32 -320 -4 -3 -207 14 -245 20 -29 5 -41 21 -144
198 -106 181 -165 283 -207 359 -11 18 -47 79 -81 135 -33 56 -61 107 -61 113
0 5 -4 10 -10 10 -5 0 -10 -8 -10 -17 -1 -87 -31 -696 -36 -721 l-7 -33 -128
2 c-71 0 -131 5 -134 9 -3 5 -1 109 5 232 5 122 15 333 21 468 9 217 26 541
28 548 1 1 66 2 145 2 l143 0 98 -172z m-1086 7 c146 -66 245 -254 226 -429
-9 -85 -37 -137 -106 -200 l-59 -53 61 -64 c34 -35 123 -126 197 -201 152
-154 154 -158 54 -177 -31 -6 -86 -18 -122 -26 -36 -8 -75 -15 -86 -15 -16 0
-56 39 -140 137 -66 76 -142 161 -169 189 l-50 53 -75 -21 c-41 -11 -79 -23
-83 -27 -8 -8 6 -64 68 -271 54 -176 55 -170 -30 -191 -38 -10 -99 -27 -135
-38 -35 -11 -68 -17 -72 -13 -9 9 -29 81 -147 522 -53 198 -92 342 -121 455
-10 39 -27 106 -39 149 -12 44 -19 81 -16 84 7 7 97 36 205 66 52 15 109 31
125 36 43 12 234 58 270 64 73 11 183 -2 244 -29z m2484 -76 c40 -11 81 -24
92 -29 11 -4 33 -13 48 -19 20 -8 27 -16 24 -29 -16 -57 -53 -179 -77 -252
-15 -47 -56 -173 -90 -280 -34 -107 -68 -213 -75 -235 -23 -68 -114 -358 -121
-387 -7 -33 -12 -34 -100 -7 -38 11 -94 28 -124 36 -30 9 -59 19 -63 23 -4 4
12 67 37 141 24 74 70 215 101 314 31 99 72 225 90 280 18 55 56 174 84 265
65 207 68 213 87 206 8 -3 47 -15 87 -27z m854 -370 c288 -164 513 -300 513
-310 0 -14 -114 -189 -123 -189 -5 0 -27 13 -50 28 -103 70 -406 247 -411 240
-16 -19 -136 -226 -136 -233 0 -6 86 -61 191 -124 105 -63 193 -120 196 -126
5 -15 -105 -195 -119 -195 -15 0 -46 18 -179 105 -168 111 -208 131 -224 113
-29 -31 -136 -211 -132 -221 4 -10 85 -59 391 -238 37 -22 61 -42 60 -52 -2
-22 -107 -187 -119 -187 -9 0 -345 194 -415 240 -37 23 -222 130 -227 130 -14
0 -63 43 -63 55 0 8 51 97 114 197 62 101 156 252 207 335 208 338 333 533
340 533 5 0 89 -46 186 -101z m-4509 -259 c258 -412 275 -444 280 -561 8 -155
-30 -259 -134 -369 -122 -129 -371 -226 -512 -200 -63 11 -163 57 -203 92 -25
22 -94 122 -254 368 -38 58 -119 183 -182 278 -62 95 -113 176 -113 179 0 13
204 153 224 153 15 0 40 -37 331 -480 81 -124 159 -238 174 -253 138 -150 390
-46 391 161 0 29 -7 68 -15 88 -12 29 -176 296 -235 384 -23 33 -170 265 -199
312 l-22 37 113 75 c62 41 120 75 128 75 9 0 100 -135 228 -339z m5662 -607
c224 -225 239 -242 264 -306 38 -99 36 -164 -10 -256 -104 -209 -308 -321
-487 -266 -37 11 -49 11 -51 2 -2 -7 -23 -86 -46 -177 -63 -243 -90 -330 -103
-330 -7 0 -35 22 -62 48 -28 26 -73 66 -99 88 l-49 42 12 43 c28 99 65 235
100 373 12 44 21 86 21 95 0 16 -88 111 -103 111 -5 0 -77 -70 -160 -155 -83
-85 -154 -155 -157 -155 -12 0 -200 182 -200 194 0 13 870 886 884 886 5 0
116 -107 246 -237z m-7018 99 c18 -16 44 -38 58 -49 14 -12 38 -32 55 -46 l29
-25 -39 -48 c-22 -27 -77 -90 -122 -141 -46 -50 -83 -96 -83 -102 0 -5 31 -36
68 -68 147 -125 672 -602 672 -611 0 -12 -173 -197 -187 -200 -7 -2 -46 27
-86 63 -87 81 -541 493 -607 553 -27 23 -52 42 -57 42 -4 0 -57 -57 -117 -125
-61 -69 -116 -125 -124 -125 -13 0 -165 128 -184 154 -5 8 196 242 381 441 31
33 85 94 121 135 109 125 162 180 176 180 7 0 28 -13 46 -28z m4523 -577 c15
-19 15 -94 -1 -179 l-4 -26 270 0 c294 0 323 -4 355 -54 19 -29 18 -68 -9
-316 -35 -320 -116 -517 -275 -668 -169 -161 -297 -212 -769 -308 -12 -2 -39
-22 -60 -43 -62 -65 -173 -144 -261 -186 l-83 -40 6 -93 c9 -126 22 -183 63
-268 39 -81 98 -155 160 -202 38 -29 49 -32 111 -32 102 0 161 -21 211 -75 50
-54 61 -81 61 -145 0 -34 -4 -50 -16 -54 -25 -10 -1627 -7 -1643 3 -19 12 -9
119 15 157 49 77 103 104 224 112 103 6 144 24 215 97 94 98 146 232 161 420
l6 80 -67 33 c-101 49 -165 93 -242 164 l-68 64 -135 28 c-248 50 -297 63
-409 113 -148 66 -294 197 -388 348 -80 129 -120 283 -148 580 -16 166 -13
212 14 243 34 40 52 42 328 42 l268 0 -3 85 c-3 66 0 91 12 110 l16 25 638 3
c350 1 816 3 1034 2 385 0 398 -1 413 -20z m1781 -2966 c76 -39 125 -87 160
-157 l29 -57 0 -420 0 -420 -120 0 -120 0 -5 391 c-5 431 -3 416 -68 443 -20
8 -777 10 -2725 9 l-2699 -3 -34 -37 -34 -38 0 -1069 c0 -656 4 -1079 10
-1095 5 -14 21 -33 37 -43 26 -17 132 -18 2318 -23 l2290 -5 0 -125 0 -125
-2315 0 -2315 0 -56 28 c-84 41 -143 98 -181 175 l-33 67 0 1130 c0 882 3
1139 13 1172 28 92 118 186 210 219 30 11 543 13 2808 14 l2772 0 58 -31z
m-4127 -614 c123 -39 217 -110 261 -195 43 -84 52 -128 48 -239 -3 -101 -5
-112 -40 -182 -24 -46 -63 -100 -105 -144 -36 -38 -107 -113 -156 -165 -50
-52 -146 -153 -215 -223 -74 -77 -121 -132 -115 -138 5 -5 148 -10 318 -11
l310 -3 3 -122 3 -123 -520 0 c-468 0 -519 2 -525 16 -3 9 -3 58 0 109 l7 92
91 95 c50 51 199 205 331 341 282 291 306 327 309 455 1 103 -25 153 -104 195
-49 26 -62 28 -117 23 -107 -9 -168 -55 -206 -154 -10 -23 -17 -53 -17 -65 0
-42 -17 -47 -147 -47 -148 0 -150 2 -134 111 25 158 91 258 223 337 107 65
351 83 497 37z m2959 -776 l-3 -770 -127 0 c-71 0 -135 0 -143 1 -13 0 -15 69
-15 560 0 308 -2 560 -4 560 -2 0 -35 -13 -75 -30 -92 -38 -238 -67 -253 -52
-14 14 -23 166 -14 215 6 32 10 35 61 45 93 19 171 66 260 157 l80 83 118 1
117 1 -2 -771z m-1543 509 c3 -13 4 -95 3 -183 l-3 -160 -95 -3 c-152 -5 -140
-20 -140 172 0 91 3 171 6 180 5 13 25 16 115 16 104 0 109 -1 114 -22z m2906
-509 c32 -23 59 -45 59 -48 -1 -16 -221 -320 -232 -321 -5 0 -18 9 -30 19 -13
10 -36 30 -52 44 l-30 24 105 161 c57 89 108 161 112 162 5 0 35 -19 68 -41z
m-2903 -326 c3 -214 16 -196 -138 -191 l-95 3 -3 179 c-2 137 1 181 10 188 7
4 60 7 118 6 l105 -3 3 -182z m2604 -20 c99 -76 248 -190 332 -253 217 -164
336 -260 336 -271 0 -13 -110 -157 -143 -188 -26 -23 -27 -23 -54 -6 -15 10
-72 54 -127 98 -155 123 -169 131 -202 115 -34 -16 -74 -69 -57 -75 6 -2 60
-43 120 -91 60 -48 126 -98 146 -112 20 -14 36 -29 34 -34 -2 -5 -41 -25 -87
-44 -78 -33 -93 -36 -182 -36 -91 -1 -100 1 -167 36 l-71 36 -46 -67 c-73
-103 -156 -175 -260 -227 -53 -26 -112 -47 -141 -51 l-51 -6 -11 35 c-7 20 -9
53 -5 76 6 40 9 42 93 83 71 34 100 56 166 124 44 45 86 94 94 108 13 25 12
28 -39 84 -30 32 -69 91 -89 133 -35 74 -36 77 -36 200 0 120 1 128 32 192 48
103 188 278 221 278 7 0 94 -62 194 -137z m708 44 c52 -41 57 -61 26 -107 -38
-57 -206 -250 -218 -250 -5 0 -28 16 -51 35 -22 19 -44 35 -49 35 -15 0 -8 27
12 45 11 10 61 73 112 139 50 67 97 124 102 128 14 10 31 3 66 -25z m-341
-1342 l54 -67 -27 -21 c-118 -97 -365 -314 -365 -322 -1 -9 101 -139 139 -179
5 -5 23 3 42 20 19 16 52 43 73 60 22 18 86 69 143 114 100 80 103 82 120 64
80 -86 122 -136 122 -144 0 -5 -22 -26 -49 -47 -26 -21 -80 -65 -118 -98 -38
-33 -90 -77 -116 -99 -26 -21 -47 -44 -47 -51 0 -7 26 -45 59 -83 32 -39 67
-83 78 -98 25 -34 11 -44 243 150 96 80 180 146 185 146 9 0 146 -143 153
-160 3 -8 -59 -65 -128 -120 -24 -19 -60 -49 -80 -66 -19 -17 -93 -77 -165
-135 -71 -57 -132 -106 -135 -109 -5 -5 -90 -73 -122 -98 -14 -12 -32 7 -154
160 -76 95 -190 236 -252 313 -62 77 -119 147 -125 155 -7 8 -65 81 -130 162
-64 81 -117 151 -117 155 1 5 37 37 82 73 44 36 86 70 92 75 6 6 76 65 156
132 80 66 176 149 215 183 l70 62 25 -30 c14 -16 49 -60 79 -97z m-6000 -15
c40 -11 96 -32 124 -47 173 -87 308 -269 338 -455 11 -67 10 -87 -5 -160 -33
-153 -96 -270 -213 -394 -65 -69 -119 -108 -195 -144 -85 -40 -164 -53 -273
-47 -153 9 -271 64 -388 182 -178 179 -227 445 -123 670 99 213 264 356 461
400 89 20 190 18 274 -5z m5129 -625 c22 -49 60 -133 85 -185 24 -52 56 -120
70 -150 13 -30 46 -100 72 -155 92 -193 225 -489 225 -499 0 -11 -187 -117
-217 -124 -8 -2 -31 8 -51 21 -20 14 -129 81 -242 149 -113 69 -270 164 -348
212 -79 48 -146 86 -148 83 -2 -2 8 -28 22 -58 25 -50 124 -279 223 -513 23
-54 41 -102 39 -108 -3 -9 -219 -98 -238 -98 -5 0 -12 10 -16 23 -3 12 -14 40
-24 62 -70 156 -140 316 -140 320 0 2 -11 28 -24 57 -13 29 -58 134 -100 233
-41 99 -98 232 -125 295 -27 63 -47 118 -43 121 11 10 203 79 220 79 8 0 51
-22 96 -49 44 -27 203 -122 351 -210 149 -89 287 -173 308 -186 20 -14 37 -21
37 -16 0 5 -72 154 -160 330 -88 177 -160 327 -160 334 0 14 232 138 242 128
3 -3 24 -46 46 -96z m-4167 -41 c143 -65 431 -189 542 -234 69 -27 68 -23 6
-153 l-41 -85 -36 15 c-21 8 -64 27 -97 42 -161 74 -345 154 -348 150 -31 -54
-106 -224 -100 -229 4 -4 49 -24 98 -45 50 -20 120 -50 157 -66 37 -16 87 -38
112 -49 l45 -19 -45 -98 c-25 -54 -49 -101 -52 -105 -4 -4 -97 33 -206 83
-110 49 -202 89 -205 89 -3 0 -21 -37 -40 -83 -19 -45 -49 -113 -67 -152 -17
-38 -44 -98 -59 -132 -15 -35 -32 -63 -37 -63 -12 0 -184 79 -215 98 -17 10
-20 18 -13 30 6 10 36 80 69 157 102 244 178 426 237 565 56 135 118 285 135
328 5 12 10 22 13 22 2 0 68 -30 147 -66z m967 -339 c98 -14 325 -51 502 -82
52 -9 98 -19 102 -22 7 -6 -17 -209 -26 -218 -4 -5 -246 23 -276 32 -11 3
-224 35 -235 35 -3 0 -24 -105 -35 -172 -6 -37 -13 -74 -16 -81 -4 -10 8 -16
43 -20 26 -3 102 -13 168 -22 66 -9 141 -19 168 -22 26 -3 50 -10 53 -15 4 -6
-2 -57 -12 -115 l-19 -104 -60 6 c-33 4 -122 15 -198 26 -195 27 -184 29 -192
-33 -4 -29 -13 -80 -20 -113 -7 -33 -21 -105 -30 -160 -10 -55 -21 -104 -25
-108 -4 -4 -47 0 -96 8 -49 9 -104 19 -121 22 -38 6 -38 9 -18 108 8 39 24
122 34 185 11 63 27 153 36 200 9 47 25 137 36 200 12 63 27 147 34 185 8 39
21 113 29 165 25 148 23 143 52 136 14 -4 69 -13 122 -21z m2016 -77 c10 -46
24 -110 31 -143 8 -33 20 -91 29 -130 8 -38 24 -110 35 -160 11 -49 36 -166
56 -260 19 -93 46 -221 58 -283 13 -62 21 -114 18 -116 -3 -2 -55 -14 -116
-26 -60 -11 -119 -23 -130 -25 -19 -4 -24 15 -78 288 -72 358 -149 729 -176
842 -6 22 -8 41 -6 43 2 2 35 11 72 19 205 46 186 50 207 -49z m-910 -70 c8
-82 26 -419 36 -673 5 -126 10 -231 10 -232 0 -2 108 0 239 4 l239 6 6 -64 c3
-35 7 -86 8 -114 l3 -50 -195 -7 c-107 -4 -253 -12 -325 -18 -71 -5 -153 -10
-181 -10 l-51 0 -7 79 c-5 69 -25 494 -44 954 -4 86 -5 162 -4 167 2 6 57 10
132 10 l129 0 5 -52z"/>
<path d="M5935 11870 c-16 -5 -63 -18 -103 -29 -41 -10 -76 -22 -79 -25 -3 -3
1 -29 10 -58 21 -72 53 -184 68 -238 7 -25 13 -46 14 -48 5 -6 257 68 283 84
54 31 78 102 63 183 -17 88 -83 142 -170 140 -31 -1 -69 -5 -86 -9z"/>
<path d="M10410 10535 l-125 -125 65 -66 c143 -144 227 -175 315 -114 94 65
125 142 87 217 -18 35 -195 213 -212 213 -3 0 -61 -56 -130 -125z"/>
<path d="M5769 9856 c-10 -10 12 -204 32 -281 27 -107 96 -249 150 -309 90
-102 212 -171 379 -214 41 -11 77 -18 78 -17 2 2 -28 68 -66 147 -39 79 -85
186 -102 238 -29 87 -65 283 -72 390 l-3 45 -196 3 c-107 1 -197 0 -200 -2z"/>
<path d="M8236 9783 c-20 -218 -86 -445 -193 -653 -24 -47 -43 -86 -43 -87 0
-19 235 61 317 108 137 78 245 233 291 414 18 70 45 264 38 280 -4 13 -35 15
-205 15 l-199 0 -6 -77z"/>
<path d="M4070 4023 c-100 -35 -208 -139 -262 -251 -41 -86 -50 -200 -23 -283
24 -72 109 -157 183 -183 115 -40 251 4 365 119 172 172 197 377 65 521 -80
87 -210 118 -328 77z"/>
</g>
</svg>
